<svg width="1084" height="609" viewBox="0 0 1084 609" fill="none" xmlns="http://www.w3.org/2000/svg">
<circle cx="62.5" cy="562.5" r="110.5" fill="#FFC364"/>
<circle cx="81" cy="372" r="191" fill="#646EFF"/>
<circle cx="980" cy="95" r="191" fill="#646EFF"/>
<circle cx="956" cy="541" r="191" fill="#646EFF"/>
<circle cx="534" cy="159" r="191" fill="#646EFF"/>
<ellipse cx="62.5" cy="-32" rx="280.5" ry="191" fill="#ED64FF"/>
<circle cx="764.5" cy="60.5" r="175.5" fill="#FFC364"/>
<circle cx="764.5" cy="482.5" r="110.5" fill="#36DB78"/>
<circle cx="955.5" cy="362.5" r="110.5" fill="#36DB78"/>
<circle cx="250.5" cy="494.5" r="110.5" fill="#36DB78"/>
<ellipse cx="534" cy="621" rx="274" ry="249" fill="#24CDD6"/>
<ellipse cx="615" cy="-76.5" rx="110" ry="110.5" fill="#36DB78"/>
<g clip-path="url(#clip0_14_157)">
<path d="M1115 275C1139.85 275 1160 246.57 1160 211.5C1160 176.43 1139.85 148 1115 148C1090.15 148 1070 176.43 1070 211.5C1070 246.57 1090.15 275 1115 275Z" fill="#F4A3FF"/>
<path d="M1115 312C1139.85 312 1160 283.57 1160 248.5C1160 213.43 1139.85 185 1115 185C1090.15 185 1070 213.43 1070 248.5C1070 283.57 1090.15 312 1115 312Z" fill="#F4A3FF"/>
<path d="M1070 230C1070 254.853 1098.43 275 1133.5 275C1168.57 275 1197 254.853 1197 230C1197 205.147 1168.57 185 1133.5 185C1098.43 185 1070 205.147 1070 230Z" fill="#F4A3FF"/>
<path d="M1033 230C1033 254.853 1061.43 275 1096.5 275C1131.57 275 1160 254.853 1160 230C1160 205.147 1131.57 185 1096.5 185C1061.43 185 1033 205.147 1033 230Z" fill="#F4A3FF"/>
</g>
<defs>
<clipPath id="clip0_14_157">
<rect width="164" height="164" fill="white" transform="translate(1033 148)"/>
</clipPath>
</defs>
</svg>
