<svg width="27" height="46" viewBox="0 0 27 46" fill="none" xmlns="http://www.w3.org/2000/svg">
<mask id="mask0_14_236" style="mask-type:luminance" maskUnits="userSpaceOnUse" x="0" y="0" width="27" height="46">
<path d="M26.0232 0.75H0.104004V45.9504H26.0232V0.75Z" fill="white"/>
</mask>
<g mask="url(#mask0_14_236)">
<mask id="mask1_14_236" style="mask-type:luminance" maskUnits="userSpaceOnUse" x="0" y="16" width="27" height="30">
<path d="M15.547 16.2991H10.58C4.79426 16.2991 0.104004 20.994 0.104004 26.7855V35.464C0.104004 41.2555 4.79426 45.9505 10.58 45.9505H15.547C21.3329 45.9505 26.0232 41.2555 26.0232 35.464V26.7855C26.0232 20.994 21.3329 16.2991 15.547 16.2991Z" fill="white"/>
</mask>
<g mask="url(#mask1_14_236)">
<mask id="mask2_14_236" style="mask-type:alpha" maskUnits="userSpaceOnUse" x="0" y="16" width="27" height="31">
<path d="M0.0136719 22.9779C0.0136719 20.7034 1.42909 18.6649 3.60896 18.0228C6.07244 17.2973 9.34939 16.4849 11.9346 16.3894C15.2343 16.2673 19.521 17.2347 22.5312 18.0659C24.7507 18.6787 26.2036 20.735 26.2036 23.0394V40.5102C26.2036 43.4767 23.8229 45.8929 20.8598 45.9338L5.50702 46.1457C2.48543 46.1875 0.0136719 43.7472 0.0136719 40.7221V22.9779Z" fill="#FFC364"/>
</mask>
<g mask="url(#mask2_14_236)">
<path d="M27.0163 14.8525H-0.97998V46.6736H27.0163V14.8525Z" fill="#FFB43B"/>
<path d="M0.0136719 19.9148C0.0136719 19.9148 8.01757 26.5328 12.8377 28.4126C19.7916 31.1245 26.1133 31.667 26.1133 31.667" stroke="#514235" stroke-opacity="0.28" stroke-width="0.333788"/>
<path d="M2.45166 15.395C2.45166 15.395 10.4557 22.0128 15.2758 23.8926C22.2297 26.6046 28.5513 27.147 28.5513 27.147" stroke="#514235" stroke-opacity="0.28" stroke-width="0.333788"/>
<path d="M6.06445 11.7788C6.06445 11.7788 14.0685 18.3966 18.8885 20.2764C25.8424 22.9885 32.1641 23.531 32.1641 23.531" stroke="#514235" stroke-opacity="0.28" stroke-width="0.333788"/>
<path d="M-0.0771484 25.3389C-0.0771484 25.3389 5.94006 30.6008 10.7602 32.4806C17.7141 35.1925 26.1129 36.4581 26.1129 36.4581" stroke="#514235" stroke-opacity="0.28" stroke-width="0.333788"/>
<path d="M0.0136719 30.9438C0.0136719 30.9438 6.2114 35.3921 11.0315 37.2719C17.9854 39.984 26.0231 41.3399 26.0231 41.3399" stroke="#514235" stroke-opacity="0.28" stroke-width="0.333788"/>
<path d="M-1.43164 35.4639C-1.43164 35.4639 5.39823 40.0025 10.2184 41.8823C17.1723 44.5944 26.0227 46.2215 26.0227 46.2215" stroke="#514235" stroke-opacity="0.28" stroke-width="0.333788"/>
<path d="M-4.41211 38.5376C-4.41211 38.5376 2.41792 43.0762 7.23805 44.956C14.1919 47.668 23.0423 49.2953 23.0423 49.2953" stroke="#514235" stroke-opacity="0.28" stroke-width="0.333788"/>
<path d="M-13.1748 40.4677C-13.1748 40.4677 2.35825 35.8512 8.8037 31.7322C18.1024 25.7899 27.5582 14.6716 27.5582 14.6716" stroke="#514235" stroke-opacity="0.28" stroke-width="0.333788"/>
<path d="M-17.4727 34.9047C-17.4727 34.9047 -1.93954 30.2883 4.50591 26.1692C13.8046 20.2269 19.6014 13.6018 19.6014 13.6018" stroke="#514235" stroke-opacity="0.28" stroke-width="0.333788"/>
<path d="M-19.584 28.6224C-19.584 28.6224 -4.05085 24.006 2.39444 19.8871C11.6933 13.9446 17.4899 7.31934 17.4899 7.31934" stroke="#514235" stroke-opacity="0.28" stroke-width="0.333788"/>
<path d="M-5.75391 44.0167C-5.75391 44.0167 6.31958 40.7284 12.7649 36.6095C22.0637 30.667 30.518 22.2117 30.518 22.2117" stroke="#514235" stroke-opacity="0.28" stroke-width="0.333788"/>
<path d="M2.06152 47.4815C2.06152 47.4815 13.1552 43.4767 19.6006 39.3576C28.8993 33.4153 37.1901 25.4158 37.1901 25.4158" stroke="#514235" stroke-opacity="0.28" stroke-width="0.333788"/>
<path d="M7.15234 51.9491C7.15234 51.9491 18.8757 47.3049 25.321 43.1858C34.6199 37.2433 43.9342 28.52 43.9342 28.52" stroke="#514235" stroke-opacity="0.28" stroke-width="0.333788"/>
<path d="M9.01904 57.1892C9.01904 57.1892 20.7423 52.5451 27.1877 48.426C36.4864 42.4837 45.8007 33.7603 45.8007 33.7603" stroke="#514235" stroke-opacity="0.28" stroke-width="0.333788"/>
<path d="M7.32852 28.4126C8.62527 28.4126 9.67657 27.3603 9.67657 26.0621C9.67657 24.764 8.62527 23.7117 7.32852 23.7117C6.03177 23.7117 4.98047 24.764 4.98047 26.0621C4.98047 27.3603 6.03177 28.4126 7.32852 28.4126Z" fill="white"/>
<path d="M18.8881 28.4126C20.1848 28.4126 21.2361 27.3603 21.2361 26.0621C21.2361 24.764 20.1848 23.7117 18.8881 23.7117C17.5913 23.7117 16.54 24.764 16.54 26.0621C16.54 27.3603 17.5913 28.4126 18.8881 28.4126Z" fill="white"/>
<path d="M19.0691 27.1468C19.6677 27.1468 20.1527 26.6611 20.1527 26.062C20.1527 25.463 19.6677 24.9773 19.0691 24.9773C18.4706 24.9773 17.9854 25.463 17.9854 26.062C17.9854 26.6611 18.4706 27.1468 19.0691 27.1468Z" fill="black"/>
<path d="M7.14806 27.1468C7.7466 27.1468 8.23182 26.6611 8.23182 26.062C8.23182 25.463 7.7466 24.9773 7.14806 24.9773C6.54952 24.9773 6.06445 25.463 6.06445 26.062C6.06445 26.6611 6.54952 27.1468 7.14806 27.1468Z" fill="black"/>
<path d="M11.3022 29.8591C11.3022 29.8591 11.2888 31.3055 13.0182 31.3055C14.7474 31.3055 14.8243 29.8591 14.8243 29.8591" stroke="black" stroke-width="0.778838" stroke-linecap="round"/>
</g>
</g>
<path d="M2.63281 6.26445L8.32226 10.3325L7.59986 2.10601L10.851 10.9652L13.7409 0.75L14.644 10.3325L19.5208 3.64283L17.9856 11.7789L24.2169 6.62605L16.6309 17.203H9.85765L2.63281 6.26445Z" fill="#286F28"/>
<path d="M2.5874 9.75029L8.30071 12.5219L7.57523 6.91704L10.8398 12.953L13.7419 5.99316L14.6488 12.5219L19.546 7.96409L18.0044 13.5073L24.2619 9.99664L16.6441 17.2029H9.84227L2.5874 9.75029Z" fill="#50AF50"/>
</g>
</svg>
