<svg width="216" height="311" viewBox="0 0 216 311" fill="none" xmlns="http://www.w3.org/2000/svg">
<mask id="mask0_14_178" style="mask-type:luminance" maskUnits="userSpaceOnUse" x="0" y="0" width="216" height="375">
<path d="M215.471 0.488281H0.78125V374.512H215.471V0.488281Z" fill="white"/>
</mask>
<g mask="url(#mask0_14_178)">
<mask id="mask1_14_178" style="mask-type:luminance" maskUnits="userSpaceOnUse" x="0" y="129" width="216" height="246">
<path d="M128.697 129.152H87.5547C39.631 129.152 0.78125 168.002 0.78125 215.926V287.738C0.78125 335.662 39.631 374.512 87.5547 374.512H128.697C176.621 374.512 215.471 335.662 215.471 287.738V215.926C215.471 168.002 176.621 129.152 128.697 129.152Z" fill="white"/>
</mask>
<g mask="url(#mask1_14_178)">
<mask id="mask2_14_178" style="mask-type:alpha" maskUnits="userSpaceOnUse" x="0" y="129" width="217" height="248">
<path d="M0.0332031 184.42C0.0332031 165.599 11.7575 148.73 29.8129 143.417C50.2192 137.413 77.3618 130.692 98.7754 129.9C126.108 128.891 161.614 136.896 186.548 143.773C204.932 148.844 216.967 165.859 216.967 184.928V329.496C216.967 354.042 197.247 374.036 172.703 374.374L45.5351 376.128C20.5073 376.473 0.0332031 356.28 0.0332031 331.249V184.42Z" fill="#FFC364"/>
</mask>
<g mask="url(#mask2_14_178)">
<path d="M223.699 117.184H-8.19531V380.496H223.699V117.184Z" fill="#FFB43B"/>
<path d="M0.0332031 159.074C0.0332031 159.074 66.331 213.836 106.256 229.391C163.855 251.832 216.219 256.32 216.219 256.32" stroke="#514235" stroke-opacity="0.28" stroke-width="3"/>
<path d="M20.2305 121.672C20.2305 121.672 86.5284 176.433 126.453 191.988C184.053 214.43 236.416 218.918 236.416 218.918" stroke="#514235" stroke-opacity="0.28" stroke-width="3"/>
<path d="M50.1523 91.75C50.1523 91.75 116.45 146.511 156.375 162.066C213.975 184.508 266.338 188.996 266.338 188.996" stroke="#514235" stroke-opacity="0.28" stroke-width="3"/>
<path d="M-0.714844 203.957C-0.714844 203.957 49.1259 247.498 89.0508 263.053C146.65 285.494 216.219 295.967 216.219 295.967" stroke="#514235" stroke-opacity="0.28" stroke-width="3"/>
<path d="M0.0332031 250.336C0.0332031 250.336 51.37 287.144 91.2949 302.699C148.895 325.141 215.471 336.361 215.471 336.361" stroke="#514235" stroke-opacity="0.28" stroke-width="3"/>
<path d="M-11.9355 287.738C-11.9355 287.738 44.6376 325.295 84.5625 340.85C142.162 363.291 215.471 376.756 215.471 376.756" stroke="#514235" stroke-opacity="0.28" stroke-width="3"/>
<path d="M-109.207 329.144C-109.207 329.144 19.455 290.944 72.8423 256.86C149.864 207.688 228.188 115.687 228.188 115.687" stroke="#514235" stroke-opacity="0.28" stroke-width="3"/>
<path d="M-144.804 283.112C-144.804 283.112 -16.1427 244.913 37.245 210.829C114.268 161.656 162.282 106.835 162.282 106.835" stroke="#514235" stroke-opacity="0.28" stroke-width="3"/>
<path d="M-162.293 231.128C-162.293 231.128 -33.6315 192.926 19.7562 158.844C96.7781 109.671 144.792 54.8491 144.792 54.8491" stroke="#514235" stroke-opacity="0.28" stroke-width="3"/>
<path d="M-47.7358 358.511C-47.7358 358.511 52.2692 331.302 105.656 297.217C182.68 248.045 252.706 178.079 252.706 178.079" stroke="#514235" stroke-opacity="0.28" stroke-width="3"/>
<path d="M16.998 387.181C16.998 387.181 108.888 354.042 162.276 319.958C239.298 270.786 307.97 204.591 307.97 204.591" stroke="#514235" stroke-opacity="0.28" stroke-width="3"/>
<path d="M59.165 424.149C59.165 424.149 156.27 385.719 209.657 351.635C286.68 302.463 363.831 230.279 363.831 230.279" stroke="#514235" stroke-opacity="0.28" stroke-width="3"/>
<path d="M74.6284 467.512C74.6284 467.512 171.732 429.083 225.12 394.999C302.142 345.827 379.293 273.642 379.293 273.642" stroke="#514235" stroke-opacity="0.28" stroke-width="3"/>
<path d="M60.625 229.391C71.3665 229.391 80.0742 220.683 80.0742 209.941C80.0742 199.2 71.3665 190.492 60.625 190.492C49.8835 190.492 41.1758 199.2 41.1758 209.941C41.1758 220.683 49.8835 229.391 60.625 229.391Z" fill="white"/>
<path d="M156.375 229.391C167.117 229.391 175.824 220.683 175.824 209.941C175.824 199.2 167.117 190.492 156.375 190.492C145.633 190.492 136.926 199.2 136.926 209.941C136.926 220.683 145.633 229.391 156.375 229.391Z" fill="white"/>
<path d="M157.871 218.918C162.829 218.918 166.848 214.899 166.848 209.941C166.848 204.984 162.829 200.965 157.871 200.965C152.913 200.965 148.895 204.984 148.895 209.941C148.895 214.899 152.913 218.918 157.871 218.918Z" fill="black"/>
<path d="M59.1289 218.918C64.0865 218.918 68.1055 214.899 68.1055 209.941C68.1055 204.984 64.0865 200.965 59.1289 200.965C54.1713 200.965 50.1523 204.984 50.1523 209.941C50.1523 214.899 54.1713 218.918 59.1289 218.918Z" fill="black"/>
<path d="M93.5391 241.359C93.5391 241.359 93.4284 253.328 107.752 253.328C122.076 253.328 122.713 241.359 122.713 241.359" stroke="black" stroke-width="7" stroke-linecap="round"/>
</g>
</g>
<path d="M21.7266 46.1191L68.8535 79.7812L62.8691 11.709L89.7988 85.0176L113.736 0.488281L121.217 79.7812L161.611 24.4258L148.895 91.75L200.51 49.1113L137.674 136.633H81.5703L21.7266 46.1191Z" fill="#286F28"/>
<path d="M21.3525 74.9641L68.677 97.8988L62.6673 51.5199L89.7091 101.466L113.747 43.875L121.259 97.8988L161.822 60.1841L149.053 106.053L200.884 77.0029L137.785 136.633H81.4461L21.3525 74.9641Z" fill="#50AF50"/>
</g>
</svg>
